<?xml version="1.0" encoding="UTF-8"?>
<!DOCTYPE score-partwise PUBLIC "-//Recordare//DTD MusicXML 3.1 Partwise//EN" "http://www.musicxml.org/dtds/partwise.dtd">
<score-partwise version="3.1">
  <work><work-title>The Devil's Dream</work-title></work>
  <part-list><score-part id="P1"><part-name>Violin</part-name></score-part></part-list>
  <part id="P1">
    <measure number="1" implicit="yes">
      <attributes>
        <divisions>96</divisions>
        <key><fifths>3</fifths><mode>major</mode></key>
        <time><beats>4</beats><beat-type>4</beat-type></time>
        <clef><sign>G</sign><line>2</line></clef>
      </attributes>
      <note><pitch><step>E</step><octave>5</octave></pitch><duration>96</duration><type>quarter</type></note>
    </measure>
    <measure number="2">
      <barline location="left"><bar-style>heavy-light</bar-style><repeat direction="forward"/></barline>
      <note><pitch><step>A</step><octave>5</octave></pitch><duration>48</duration><type>eighth</type></note>
      <note><pitch><step>G</step><octave>5</octave></pitch><duration>48</duration><type>eighth</type></note>
      <note><pitch><step>A</step><octave>5</octave></pitch><duration>48</duration><type>eighth</type></note>
      <note><pitch><step>E</step><octave>5</octave></pitch><duration>48</duration><type>eighth</type></note>
      <note><pitch><step>A</step><octave>5</octave></pitch><duration>48</duration><type>eighth</type></note>
      <note><pitch><step>G</step><octave>5</octave></pitch><duration>48</duration><type>eighth</type></note>
      <note><pitch><step>A</step><octave>5</octave></pitch><duration>48</duration><type>eighth</type></note>
      <note><pitch><step>E</step><octave>5</octave></pitch><duration>48</duration><type>eighth</type></note>
    </measure>
    <measure number="3">
      <note><pitch><step>A</step><octave>5</octave></pitch><duration>48</duration><type>eighth</type></note>
      <note><pitch><step>G</step><octave>5</octave></pitch><duration>48</duration><type>eighth</type></note>
      <note><pitch><step>A</step><octave>5</octave></pitch><duration>48</duration><type>eighth</type></note>
      <note><pitch><step>E</step><octave>5</octave></pitch><duration>48</duration><type>eighth</type></note>
      <note><pitch><step>F</step><octave>5</octave></pitch><duration>48</duration><type>eighth</type></note>
      <note><pitch><step>E</step><octave>5</octave></pitch><duration>48</duration><type>eighth</type></note>
      <note><pitch><step>D</step><octave>5</octave></pitch><duration>48</duration><type>eighth</type></note>
      <note><pitch><step>C</step><octave>5</octave></pitch><duration>48</duration><type>eighth</type></note>
    </measure>
    <measure number="4">
      <note><pitch><step>D</step><octave>5</octave></pitch><duration>48</duration><type>eighth</type></note>
      <note><pitch><step>F</step><octave>5</octave></pitch><duration>48</duration><type>eighth</type></note>
      <note><pitch><step>B</step><octave>4</octave></pitch><duration>48</duration><type>eighth</type></note>
      <note><pitch><step>F</step><octave>5</octave></pitch><duration>48</duration><type>eighth</type></note>
      <note><pitch><step>D</step><octave>5</octave></pitch><duration>48</duration><type>eighth</type></note>
      <note><pitch><step>F</step><octave>5</octave></pitch><duration>48</duration><type>eighth</type></note>
      <note><pitch><step>B</step><octave>4</octave></pitch><duration>48</duration><type>eighth</type></note>
      <note><pitch><step>F</step><octave>5</octave></pitch><duration>48</duration><type>eighth</type></note>
    </measure>
    <measure number="5">
      <note><pitch><step>D</step><octave>5</octave></pitch><duration>48</duration><type>eighth</type></note>
      <note><pitch><step>F</step><octave>5</octave></pitch><duration>48</duration><type>eighth</type></note>
      <note><pitch><step>B</step><octave>4</octave></pitch><duration>48</duration><type>eighth</type></note>
      <note><pitch><step>F</step><octave>5</octave></pitch><duration>48</duration><type>eighth</type></note>
      <note><pitch><step>A</step><octave>5</octave></pitch><duration>48</duration><type>eighth</type></note>
      <note><pitch><step>G</step><octave>5</octave></pitch><duration>48</duration><type>eighth</type></note>
      <note><pitch><step>F</step><octave>5</octave></pitch><duration>48</duration><type>eighth</type></note>
      <note><pitch><step>E</step><octave>5</octave></pitch><duration>48</duration><type>eighth</type></note>
    </measure>
    <measure number="6">
      <note><pitch><step>A</step><octave>5</octave></pitch><duration>48</duration><type>eighth</type></note>
      <note><pitch><step>G</step><octave>5</octave></pitch><duration>48</duration><type>eighth</type></note>
      <note><pitch><step>A</step><octave>5</octave></pitch><duration>48</duration><type>eighth</type></note>
      <note><pitch><step>E</step><octave>5</octave></pitch><duration>48</duration><type>eighth</type></note>
      <note><pitch><step>A</step><octave>5</octave></pitch><duration>48</duration><type>eighth</type></note>
      <note><pitch><step>G</step><octave>5</octave></pitch><duration>48</duration><type>eighth</type></note>
      <note><pitch><step>A</step><octave>5</octave></pitch><duration>48</duration><type>eighth</type></note>
      <note><pitch><step>E</step><octave>5</octave></pitch><duration>48</duration><type>eighth</type></note>
    </measure>
    <measure number="7">
      <note><pitch><step>A</step><octave>5</octave></pitch><duration>48</duration><type>eighth</type></note>
      <note><pitch><step>G</step><octave>5</octave></pitch><duration>48</duration><type>eighth</type></note>
      <note><pitch><step>A</step><octave>5</octave></pitch><duration>48</duration><type>eighth</type></note>
      <note><pitch><step>E</step><octave>5</octave></pitch><duration>48</duration><type>eighth</type></note>
      <note><pitch><step>F</step><octave>5</octave></pitch><duration>48</duration><type>eighth</type></note>
      <note><pitch><step>E</step><octave>5</octave></pitch><duration>48</duration><type>eighth</type></note>
      <note><pitch><step>D</step><octave>5</octave></pitch><duration>48</duration><type>eighth</type></note>
      <note><pitch><step>C</step><octave>5</octave></pitch><duration>48</duration><type>eighth</type></note>
    </measure>
    <measure number="8">
      <note><pitch><step>D</step><octave>5</octave></pitch><duration>48</duration><type>eighth</type></note>
      <note><pitch><step>F</step><octave>5</octave></pitch><duration>48</duration><type>eighth</type></note>
      <note><pitch><step>E</step><octave>5</octave></pitch><duration>48</duration><type>eighth</type></note>
      <note><pitch><step>D</step><octave>5</octave></pitch><duration>48</duration><type>eighth</type></note>
      <note><pitch><step>C</step><octave>5</octave></pitch><duration>48</duration><type>eighth</type></note>
      <note><pitch><step>B</step><octave>4</octave></pitch><duration>48</duration><type>eighth</type></note>
      <note><pitch><step>A</step><octave>4</octave></pitch><duration>48</duration><type>eighth</type></note>
      <note><pitch><step>C</step><octave>5</octave></pitch><duration>48</duration><type>eighth</type></note>
    </measure>
    <measure number="9">
      <note><pitch><step>B</step><octave>4</octave></pitch><duration>48</duration><type>eighth</type></note>
      <note><pitch><step>A</step><octave>4</octave></pitch><duration>48</duration><type>eighth</type></note>
      <note><pitch><step>G</step><alter>1</alter><octave>4</octave></pitch><duration>48</duration><type>eighth</type><accidental>sharp</accidental></note>
      <note><pitch><step>B</step><octave>4</octave></pitch><duration>48</duration><type>eighth</type></note>
      <note><pitch><step>A</step><octave>4</octave></pitch><duration>96</duration><type>quarter</type></note>
      <note><pitch><step>E</step><octave>5</octave></pitch><duration>96</duration><type>quarter</type></note>
      <barline location="right"><bar-style>light-heavy</bar-style><repeat direction="backward"/></barline>
    </measure>
    <measure number="10">
      <barline location="left"><bar-style>heavy-light</bar-style><repeat direction="forward"/></barline>
      <note><pitch><step>C</step><octave>5</octave></pitch><duration>48</duration><type>eighth</type></note>
      <note><pitch><step>E</step><octave>5</octave></pitch><duration>48</duration><type>eighth</type></note>
      <note><pitch><step>A</step><octave>4</octave></pitch><duration>48</duration><type>eighth</type></note>
      <note><pitch><step>E</step><octave>5</octave></pitch><duration>48</duration><type>eighth</type></note>
      <note><pitch><step>C</step><octave>5</octave></pitch><duration>48</duration><type>eighth</type></note>
      <note><pitch><step>E</step><octave>5</octave></pitch><duration>48</duration><type>eighth</type></note>
      <note><pitch><step>A</step><octave>4</octave></pitch><duration>48</duration><type>eighth</type></note>
      <note><pitch><step>E</step><octave>5</octave></pitch><duration>48</duration><type>eighth</type></note>
    </measure>
    <measure number="11">
      <note><pitch><step>C</step><octave>5</octave></pitch><duration>48</duration><type>eighth</type></note>
      <note><pitch><step>E</step><octave>5</octave></pitch><duration>48</duration><type>eighth</type></note>
      <note><pitch><step>A</step><octave>4</octave></pitch><duration>48</duration><type>eighth</type></note>
      <note><pitch><step>E</step><octave>5</octave></pitch><duration>48</duration><type>eighth</type></note>
      <note><pitch><step>F</step><octave>5</octave></pitch><duration>48</duration><type>eighth</type></note>
      <note><pitch><step>E</step><octave>5</octave></pitch><duration>48</duration><type>eighth</type></note>
      <note><pitch><step>D</step><octave>5</octave></pitch><duration>48</duration><type>eighth</type></note>
      <note><pitch><step>C</step><octave>5</octave></pitch><duration>48</duration><type>eighth</type></note>
    </measure>
    <measure number="12">
      <note><pitch><step>D</step><octave>5</octave></pitch><duration>48</duration><type>eighth</type></note>
      <note><pitch><step>F</step><octave>5</octave></pitch><duration>48</duration><type>eighth</type></note>
      <note><pitch><step>B</step><octave>4</octave></pitch><duration>48</duration><type>eighth</type></note>
      <note><pitch><step>F</step><octave>5</octave></pitch><duration>48</duration><type>eighth</type></note>
      <note><pitch><step>D</step><octave>5</octave></pitch><duration>48</duration><type>eighth</type></note>
      <note><pitch><step>F</step><octave>5</octave></pitch><duration>48</duration><type>eighth</type></note>
      <note><pitch><step>B</step><octave>4</octave></pitch><duration>48</duration><type>eighth</type></note>
      <note><pitch><step>F</step><octave>5</octave></pitch><duration>48</duration><type>eighth</type></note>
    </measure>
    <measure number="13">
      <note><pitch><step>D</step><octave>5</octave></pitch><duration>48</duration><type>eighth</type></note>
      <note><pitch><step>F</step><octave>5</octave></pitch><duration>48</duration><type>eighth</type></note>
      <note><pitch><step>B</step><octave>4</octave></pitch><duration>48</duration><type>eighth</type></note>
      <note><pitch><step>F</step><octave>5</octave></pitch><duration>48</duration><type>eighth</type></note>
      <note><pitch><step>A</step><octave>5</octave></pitch><duration>48</duration><type>eighth</type></note>
      <note><pitch><step>G</step><octave>5</octave></pitch><duration>48</duration><type>eighth</type></note>
      <note><pitch><step>F</step><octave>5</octave></pitch><duration>48</duration><type>eighth</type></note>
      <note><pitch><step>E</step><octave>5</octave></pitch><duration>48</duration><type>eighth</type></note>
    </measure>
    <measure number="14">
      <note><pitch><step>C</step><octave>5</octave></pitch><duration>48</duration><type>eighth</type></note>
      <note><pitch><step>E</step><octave>5</octave></pitch><duration>48</duration><type>eighth</type></note>
      <note><pitch><step>A</step><octave>4</octave></pitch><duration>48</duration><type>eighth</type></note>
      <note><pitch><step>E</step><octave>5</octave></pitch><duration>48</duration><type>eighth</type></note>
      <note><pitch><step>C</step><octave>5</octave></pitch><duration>48</duration><type>eighth</type></note>
      <note><pitch><step>E</step><octave>5</octave></pitch><duration>48</duration><type>eighth</type></note>
      <note><pitch><step>A</step><octave>4</octave></pitch><duration>48</duration><type>eighth</type></note>
      <note><pitch><step>E</step><octave>5</octave></pitch><duration>48</duration><type>eighth</type></note>
    </measure>
    <measure number="15">
      <note><pitch><step>C</step><octave>5</octave></pitch><duration>48</duration><type>eighth</type></note>
      <note><pitch><step>E</step><octave>5</octave></pitch><duration>48</duration><type>eighth</type></note>
      <note><pitch><step>A</step><octave>4</octave></pitch><duration>48</duration><type>eighth</type></note>
      <note><pitch><step>E</step><octave>5</octave></pitch><duration>48</duration><type>eighth</type></note>
      <note><pitch><step>F</step><octave>5</octave></pitch><duration>48</duration><type>eighth</type></note>
      <note><pitch><step>E</step><octave>5</octave></pitch><duration>48</duration><type>eighth</type></note>
      <note><pitch><step>D</step><octave>5</octave></pitch><duration>48</duration><type>eighth</type></note>
      <note><pitch><step>C</step><octave>5</octave></pitch><duration>48</duration><type>eighth</type></note>
    </measure>
    <measure number="16">
      <note><pitch><step>D</step><octave>5</octave></pitch><duration>48</duration><type>eighth</type></note>
      <note><pitch><step>F</step><octave>5</octave></pitch><duration>48</duration><type>eighth</type></note>
      <note><pitch><step>E</step><octave>5</octave></pitch><duration>48</duration><type>eighth</type></note>
      <note><pitch><step>D</step><octave>5</octave></pitch><duration>48</duration><type>eighth</type></note>
      <note><pitch><step>C</step><octave>5</octave></pitch><duration>48</duration><type>eighth</type></note>
      <note><pitch><step>B</step><octave>4</octave></pitch><duration>48</duration><type>eighth</type></note>
      <note><pitch><step>A</step><octave>4</octave></pitch><duration>48</duration><type>eighth</type></note>
      <note><pitch><step>C</step><octave>5</octave></pitch><duration>48</duration><type>eighth</type></note>
    </measure>
    <measure number="17">
      <note><pitch><step>B</step><octave>4</octave></pitch><duration>48</duration><type>eighth</type></note>
      <note><pitch><step>A</step><octave>4</octave></pitch><duration>48</duration><type>eighth</type></note>
      <note><pitch><step>G</step><alter>1</alter><octave>4</octave></pitch><duration>48</duration><type>eighth</type><accidental>sharp</accidental></note>
      <note><pitch><step>B</step><octave>4</octave></pitch><duration>48</duration><type>eighth</type></note>
      <note><pitch><step>A</step><octave>4</octave></pitch><duration>96</duration><type>quarter</type></note>
      <note><pitch><step>E</step><octave>5</octave></pitch><duration>96</duration><type>quarter</type></note>
      <barline location="right"><bar-style>light-heavy</bar-style><repeat direction="backward"/></barline>
    </measure>
    <measure number="18">
      <note><pitch><step>B</step><octave>4</octave></pitch><duration>48</duration><type>eighth</type></note>
      <note><pitch><step>A</step><octave>4</octave></pitch><duration>48</duration><type>eighth</type></note>
      <note><pitch><step>G</step><alter>1</alter><octave>4</octave></pitch><duration>48</duration><type>eighth</type><accidental>sharp</accidental></note>
      <note><pitch><step>B</step><octave>4</octave></pitch><duration>48</duration><type>eighth</type></note>
      <note><pitch><step>A</step><octave>4</octave></pitch><duration>192</duration><type>half</type></note>
    </measure>
  </part>
</score-partwise>
